<svg width="32" height="32" viewBox="0 0 32 32" fill="none" xmlns="http://www.w3.org/2000/svg">
<path d="M5.90176 27.201L3.65576 2H28.3438L26.0948 27.197L15.9848 30L5.90176 27.201Z" fill="#1572B6"/>
<path d="M16 27.858L24.17 25.593L26.092 4.06104H16V27.858Z" fill="#33A9DC"/>
<path d="M16 13.1911H20.09L20.372 10.0261H16V6.93506H23.75L23.676 7.76406L22.917 16.2821H16V13.1911Z" fill="white"/>
<path d="M16.0192 21.218L16.0052 21.222L12.5632 20.292L12.3432 17.827H9.24023L9.67323 22.68L16.0042 24.438L16.0192 24.434V21.218Z" fill="#EBEBEB"/>
<path d="M19.8268 16.151L19.4548 20.29L16.0078 21.22V24.436L22.3438 22.68L22.3908 22.158L22.9278 16.151H19.8268Z" fill="white"/>
<path d="M16.0111 6.93506V10.0261H8.54507L8.48307 9.33106L8.34207 7.76406L8.26807 6.93506H16.0111ZM16.0001 13.1911V16.2821H12.6011L12.5391 15.5871L12.3991 14.0201L12.3251 13.1911H16.0001Z" fill="#EBEBEB"/>
</svg>
