<svg width="32" height="32" viewBox="0 0 32 32" fill="none" xmlns="http://www.w3.org/2000/svg">
<path d="M5.90179 27.201L3.65479 2H28.3448L26.0948 27.197L15.9848 30L5.90179 27.201Z" fill="#E44F26"/>
<path d="M16 27.858L24.17 25.593L26.092 4.06104H16V27.858Z" fill="#F1662A"/>
<path d="M16 13.407H11.91L11.628 10.242H16V7.151H8.25L8.324 7.981L9.083 16.498H16V13.407ZM16 21.434L15.986 21.438L12.544 20.509L12.324 18.044H9.221L9.654 22.896L15.986 24.654L16 24.65V21.434Z" fill="#EBEBEB"/>
<path d="M15.9888 13.407V16.498H19.7948L19.4368 20.507L15.9888 21.437V24.653L22.3258 22.896L22.3718 22.374L23.0978 14.237L23.1738 13.407H15.9888ZM15.9888 7.151V10.242H23.4548L23.5168 9.548L23.6578 7.981L23.7318 7.151H15.9888Z" fill="white"/>
</svg>
